# xmcd
#
# Track frame offsets:
#	150
#	13675
#	31003
#	49367
#	69890
#	83317
#	98938
#	108708
#	120028
#	134029
#	147204
#	158898
#	170183
#	181259
#	193684
#
# Disc length: 2732 seconds
#
# Revision: 0
# Processed by: cddbd v1.5.2PL0 Copyright (c) Steve Scherf et al.
# Submitted via: dBpowerAMP V4.0
#
DISCID=c50aaa0f
DTITLE=Ray Charles - A Portrait Of Ray
DYEAR=1968
DGENRE=Soul
TTITLE0=Never Say Naw
TTITLE1=The sun Died (Il Est Mort Le Soleil)
TTITLE2=Am I Blue
TTITLE3=Yesterdays
TTITLE4=When I Stop Dreamin'
TTITLE5=I Won't Leave
TTITLE6=A Sweet Young Thing Like You
TTITLE7=The Bright Lights and You Girl
TTITLE8=Understanding
TTITLE9=Eleanor Rigby
TTITLE10=In The Heat Of The Night
TTITLE11=I Don't Need No Doctor
TTITLE12=I Chose To Sing The Blues
TTITLE13=Yesterday
TTITLE14=Never Had Enough Of Nothing Yet
EXTD=
EXTT0=
EXTT1=
EXTT2=
EXTT3=
EXTT4=
EXTT5=
EXTT6=
EXTT7=
EXTT8=
EXTT9=
EXTT10=
EXTT11=
EXTT12=
EXTT13=
EXTT14=
PLAYORDER=
